# Blender v2.75 (sub 0) OBJ File: ''
# www.blender.org
mtllib sphere.mtl
o Sphere
v -0.342020 0.939693 0.000000
v -0.642788 0.766044 0.000000
v -0.984808 0.173648 0.000000
v -0.984808 -0.173648 0.000000
v -0.642788 -0.766044 0.000000
v -0.342020 -0.939693 0.000000
v -0.287726 0.939693 -0.184910
v -0.540747 0.766044 -0.347517
v -0.728547 0.500000 -0.468209
v -0.828473 0.173648 -0.532427
v -0.828473 -0.173648 -0.532427
v -0.728547 -0.500000 -0.468209
v -0.540747 -0.766044 -0.347517
v -0.287726 -0.939693 -0.184910
v -0.142080 0.939693 -0.311112
v -0.267024 0.766044 -0.584700
v -0.359760 0.500000 -0.787764
v -0.409104 0.173648 -0.895812
v -0.409104 -0.173648 -0.895812
v -0.359760 -0.500000 -0.787764
v -0.267024 -0.766044 -0.584700
v -0.142080 -0.939693 -0.311112
v 0.048674 0.939693 -0.338539
v 0.091478 0.766044 -0.636245
v 0.123248 0.500000 -0.857210
v 0.140152 0.173648 -0.974784
v 0.140152 -0.173648 -0.974784
v 0.123248 -0.500000 -0.857210
v 0.091478 -0.766044 -0.636245
v 0.048674 -0.939693 -0.338539
v -0.000000 1.000000 0.000000
v 0.223975 0.939693 -0.258481
v 0.420936 0.766044 -0.485786
v 0.567126 0.500000 -0.654498
v 0.644912 0.173648 -0.744268
v 0.644911 -0.173648 -0.744268
v 0.567126 -0.500000 -0.654498
v 0.420936 -0.766044 -0.485786
v 0.223975 -0.939693 -0.258482
v 0.328166 0.939693 -0.096358
v 0.616750 0.766044 -0.181094
v 0.830945 0.500000 -0.243988
v 0.944916 0.173648 -0.277452
v 0.944916 -0.173648 -0.277452
v 0.830945 -0.500000 -0.243988
v 0.616750 -0.766044 -0.181094
v 0.328166 -0.939693 -0.096358
v 0.328166 0.939693 0.096358
v 0.616750 0.766044 0.181094
v 0.830945 0.500000 0.243987
v 0.944916 0.173648 0.277452
v 0.944916 -0.173648 0.277452
v 0.830945 -0.500000 0.243987
v 0.616750 -0.766044 0.181094
v 0.328166 -0.939693 0.096358
v 0.223975 0.939693 0.258481
v 0.420936 0.766044 0.485786
v 0.567126 0.500000 0.654498
v 0.644912 0.173648 0.744268
v 0.644912 -0.173648 0.744268
v 0.567126 -0.500000 0.654498
v 0.420936 -0.766044 0.485786
v 0.223975 -0.939693 0.258481
v 0.048674 0.939693 0.338539
v 0.091478 0.766044 0.636245
v 0.123248 0.500000 0.857210
v 0.140153 0.173648 0.974783
v 0.140153 -0.173648 0.974783
v 0.123248 -0.500000 0.857210
v 0.091478 -0.766044 0.636245
v 0.048674 -0.939693 0.338539
v -0.142080 0.939693 0.311112
v -0.267023 0.766044 0.584700
v -0.359760 0.500000 0.787764
v -0.409104 0.173648 0.895812
v -0.409104 -0.173648 0.895812
v -0.359760 -0.500000 0.787764
v -0.267023 -0.766044 0.584700
v -0.142080 -0.939693 0.311112
v -0.000000 -1.000000 0.000000
v -0.287726 0.939693 0.184910
v -0.540747 0.766044 0.347517
v -0.728547 0.500000 0.468209
v -0.828473 0.173648 0.532427
v -0.828473 -0.173648 0.532427
v -0.728547 -0.500000 0.468209
v -0.540747 -0.766044 0.347517
v -0.287726 -0.939693 0.184910
v -0.866025 0.500000 0.000000
v -0.866025 -0.500000 0.000000
vn -0.494700 -0.856800 -0.145300
vn -0.959500 -0.000000 -0.281700
vn -0.494700 0.856800 -0.145300
vn -0.618200 0.329700 -0.713500
vn -0.337600 -0.856800 -0.389700
vn -0.654900 -0.000000 -0.755700
vn -0.337600 0.856800 -0.389700
vn -0.618200 -0.329700 -0.713500
vn -0.510100 0.627100 -0.588700
vn -0.510100 -0.627100 -0.588700
vn -0.073400 0.856800 -0.510300
vn -0.134400 -0.329700 -0.934500
vn -0.110900 0.627100 -0.771000
vn -0.110900 -0.627100 -0.771000
vn -0.134400 0.329700 -0.934500
vn -0.073400 -0.856800 -0.510300
vn -0.142300 -0.000000 -0.989800
vn 0.323600 -0.627100 -0.708500
vn 0.392200 0.329700 -0.858800
vn 0.214200 -0.856800 -0.469000
vn 0.415400 -0.000000 -0.909600
vn 0.214200 0.856800 -0.469000
vn 0.392200 -0.329700 -0.858800
vn 0.323600 0.627100 -0.708500
vn 0.433700 -0.856800 -0.278700
vn 0.841300 -0.000000 -0.540600
vn 0.433700 0.856800 -0.278700
vn 0.794200 -0.329700 -0.510400
vn 0.655300 0.627100 -0.421100
vn 0.655300 -0.627100 -0.421100
vn 0.794200 0.329700 -0.510400
vn 0.944100 -0.329700 -0.000000
vn 0.778900 0.627100 -0.000000
vn 0.778900 -0.627100 -0.000000
vn 0.944100 0.329700 -0.000000
vn 0.515600 -0.856800 0.000000
vn 1.000000 0.000000 0.000000
vn 0.515600 0.856800 -0.000000
vn 0.794200 0.329700 0.510400
vn 0.433700 -0.856800 0.278700
vn 0.841300 0.000000 0.540600
vn 0.433700 0.856800 0.278700
vn 0.794200 -0.329700 0.510400
vn 0.655300 0.627100 0.421100
vn 0.655300 -0.627100 0.421100
vn 0.214200 0.856800 0.469000
vn 0.392200 -0.329700 0.858800
vn 0.323600 0.627100 0.708500
vn 0.323600 -0.627100 0.708500
vn 0.392200 0.329700 0.858800
vn 0.214200 -0.856800 0.469000
vn 0.415400 0.000000 0.909600
vn -0.110900 -0.627100 0.771000
vn -0.134400 0.329700 0.934500
vn -0.073400 -0.856800 0.510300
vn -0.142300 0.000000 0.989800
vn -0.073400 0.856800 0.510300
vn -0.134400 -0.329700 0.934500
vn -0.110900 0.627100 0.771000
vn -0.654900 0.000000 0.755700
vn -0.337600 0.856800 0.389700
vn -0.618200 -0.329700 0.713500
vn -0.510100 0.627100 0.588700
vn -0.510100 -0.627100 0.588700
vn -0.618200 0.329700 0.713500
vn -0.337600 -0.856800 0.389700
vn -0.905800 -0.329700 -0.266000
vn -0.747400 0.627100 -0.219400
vn -0.747400 -0.627100 -0.219400
vn -0.905800 0.329700 -0.266000
vn -0.173400 0.983500 -0.050900
vn -0.173400 -0.983500 -0.050900
vn -0.118400 0.983500 -0.136600
vn -0.118400 -0.983500 -0.136600
vn -0.025700 -0.983500 -0.178900
vn -0.025700 0.983500 -0.178900
vn 0.075100 0.983500 -0.164400
vn 0.075100 -0.983500 -0.164400
vn 0.152100 -0.983500 -0.097700
vn 0.152100 0.983500 -0.097700
vn 0.180700 0.983500 0.000000
vn 0.180700 -0.983500 0.000000
vn 0.152100 0.983500 0.097700
vn 0.152100 -0.983500 0.097700
vn 0.075100 -0.983500 0.164400
vn 0.075100 0.983500 0.164400
vn -0.025700 0.983500 0.178900
vn -0.025700 -0.983500 0.178900
vn -0.118400 -0.983500 0.136600
vn -0.118400 0.983500 0.136600
vn -0.747400 0.627100 0.219400
vn -0.747400 -0.627100 0.219400
vn -0.905800 0.329700 0.266000
vn -0.173400 0.983500 0.050900
vn -0.494700 -0.856800 0.145300
vn -0.959500 0.000000 0.281700
vn -0.494700 0.856800 0.145300
vn -0.173400 -0.983500 0.050900
vn -0.905800 -0.329700 0.266000
usemtl None
s off
f 6//1 5//1 13//1 14//1
f 4//2 3//2 10//2 11//2
f 2//3 1//3 7//3 8//3
f 10//4 9//4 17//4 18//4
f 14//5 13//5 21//5 22//5
f 11//6 10//6 18//6 19//6
f 8//7 7//7 15//7 16//7
f 12//8 11//8 19//8 20//8
f 9//9 8//9 16//9 17//9
f 13//10 12//10 20//10 21//10
f 16//11 15//11 23//11 24//11
f 20//12 19//12 27//12 28//12
f 17//13 16//13 24//13 25//13
f 21//14 20//14 28//14 29//14
f 18//15 17//15 25//15 26//15
f 22//16 21//16 29//16 30//16
f 19//17 18//17 26//17 27//17
f 29//18 28//18 37//18 38//18
f 26//19 25//19 34//19 35//19
f 30//20 29//20 38//20 39//20
f 27//21 26//21 35//21 36//21
f 24//22 23//22 32//22 33//22
f 28//23 27//23 36//23 37//23
f 25//24 24//24 33//24 34//24
f 39//25 38//25 46//25 47//25
f 36//26 35//26 43//26 44//26
f 33//27 32//27 40//27 41//27
f 37//28 36//28 44//28 45//28
f 34//29 33//29 41//29 42//29
f 38//30 37//30 45//30 46//30
f 35//31 34//31 42//31 43//31
f 45//32 44//32 52//32 53//32
f 42//33 41//33 49//33 50//33
f 46//34 45//34 53//34 54//34
f 43//35 42//35 50//35 51//35
f 47//36 46//36 54//36 55//36
f 44//37 43//37 51//37 52//37
f 41//38 40//38 48//38 49//38
f 51//39 50//39 58//39 59//39
f 55//40 54//40 62//40 63//40
f 52//41 51//41 59//41 60//41
f 49//42 48//42 56//42 57//42
f 53//43 52//43 60//43 61//43
f 50//44 49//44 57//44 58//44
f 54//45 53//45 61//45 62//45
f 57//46 56//46 64//46 65//46
f 61//47 60//47 68//47 69//47
f 58//48 57//48 65//48 66//48
f 62//49 61//49 69//49 70//49
f 59//50 58//50 66//50 67//50
f 63//51 62//51 70//51 71//51
f 60//52 59//52 67//52 68//52
f 70//53 69//53 77//53 78//53
f 67//54 66//54 74//54 75//54
f 71//55 70//55 78//55 79//55
f 68//56 67//56 75//56 76//56
f 65//57 64//57 72//57 73//57
f 69//58 68//58 76//58 77//58
f 66//59 65//59 73//59 74//59
f 76//60 75//60 84//60 85//60
f 73//61 72//61 81//61 82//61
f 77//62 76//62 85//62 86//62
f 74//63 73//63 82//63 83//63
f 78//64 77//64 86//64 87//64
f 75//65 74//65 83//65 84//65
f 79//66 78//66 87//66 88//66
f 90//67 4//67 11//67 12//67
f 89//68 2//68 8//68 9//68
f 5//69 90//69 12//69 13//69
f 3//70 89//70 9//70 10//70
f 1//71 31//71 7//71
f 80//72 6//72 14//72
f 7//73 31//73 15//73
f 80//74 14//74 22//74
f 80//75 22//75 30//75
f 15//76 31//76 23//76
f 23//77 31//77 32//77
f 80//78 30//78 39//78
f 80//79 39//79 47//79
f 32//80 31//80 40//80
f 40//81 31//81 48//81
f 80//82 47//82 55//82
f 48//83 31//83 56//83
f 80//84 55//84 63//84
f 80//85 63//85 71//85
f 56//86 31//86 64//86
f 64//87 31//87 72//87
f 80//88 71//88 79//88
f 80//89 79//89 88//89
f 72//90 31//90 81//90
f 83//91 82//91 2//91 89//91
f 87//92 86//92 90//92 5//92
f 84//93 83//93 89//93 3//93
f 81//94 31//94 1//94
f 88//95 87//95 5//95 6//95
f 85//96 84//96 3//96 4//96
f 82//97 81//97 1//97 2//97
f 80//98 88//98 6//98
f 86//99 85//99 4//99 90//99
